<svg width="314" height="314" viewBox="0 0 314 314" fill="none" xmlns="http://www.w3.org/2000/svg">
<path d="M65.4167 71.9583C65.4167 59.8136 70.2412 48.1663 78.8288 39.5787C87.4164 30.9911 99.0637 26.1667 111.208 26.1667H157V117.75H111.208C99.0637 117.75 87.4164 112.926 78.8288 104.338C70.2412 95.7503 65.4167 84.103 65.4167 71.9583Z" stroke="black" stroke-width="2" stroke-linecap="round" stroke-linejoin="round"/>
<path d="M157 26.1667H202.792C208.805 26.1667 214.76 27.3511 220.315 29.6524C225.871 31.9536 230.919 35.3266 235.171 39.5787C239.423 43.8309 242.796 48.8789 245.098 54.4346C247.399 59.9903 248.583 65.9449 248.583 71.9583C248.583 77.9718 247.399 83.9264 245.098 89.4821C242.796 95.0378 239.423 100.086 235.171 104.338C230.919 108.59 225.871 111.963 220.315 114.264C214.76 116.566 208.805 117.75 202.792 117.75H157V26.1667Z" stroke="black" stroke-width="2" stroke-linecap="round" stroke-linejoin="round"/>
<path d="M157 163.542C157 157.528 158.184 151.574 160.486 146.018C162.787 140.462 166.16 135.414 170.412 131.162C174.664 126.91 179.712 123.537 185.268 121.236C190.824 118.934 196.778 117.75 202.792 117.75C208.805 117.75 214.76 118.934 220.315 121.236C225.871 123.537 230.919 126.91 235.171 131.162C239.423 135.414 242.796 140.462 245.098 146.018C247.399 151.574 248.583 157.528 248.583 163.542C248.583 169.555 247.399 175.51 245.098 181.065C242.796 186.621 239.423 191.669 235.171 195.921C230.919 200.173 225.871 203.546 220.315 205.848C214.76 208.149 208.805 209.333 202.792 209.333C196.778 209.333 190.824 208.149 185.268 205.848C179.712 203.546 174.664 200.173 170.412 195.921C166.16 191.669 162.787 186.621 160.486 181.065C158.184 175.51 157 169.555 157 163.542V163.542Z" stroke="black" stroke-width="2" stroke-linecap="round" stroke-linejoin="round"/>
<path d="M65.4167 255.125C65.4167 242.98 70.2412 231.333 78.8288 222.745C87.4164 214.158 99.0637 209.333 111.208 209.333H157V255.125C157 267.27 152.176 278.917 143.588 287.505C135 296.092 123.353 300.917 111.208 300.917C99.0637 300.917 87.4164 296.092 78.8288 287.505C70.2412 278.917 65.4167 267.27 65.4167 255.125Z" stroke="black" stroke-width="2" stroke-linecap="round" stroke-linejoin="round"/>
<path d="M65.4167 163.542C65.4167 151.397 70.2412 139.75 78.8288 131.162C87.4164 122.574 99.0637 117.75 111.208 117.75H157V209.333H111.208C99.0637 209.333 87.4164 204.509 78.8288 195.921C70.2412 187.334 65.4167 175.686 65.4167 163.542Z" stroke="black" stroke-width="2" stroke-linecap="round" stroke-linejoin="round"/>
</svg>
