<svg width="239" height="147" viewBox="0 0 239 147" fill="none" xmlns="http://www.w3.org/2000/svg">
<path d="M35.0195 96.7578V145H0.742188V2.8125H57.4805C68.3529 2.8125 77.9557 4.83073 86.2891 8.86719C94.6875 12.8385 101.165 18.5352 105.723 25.957C110.345 33.3138 112.656 41.6797 112.656 51.0547C112.656 64.9219 107.676 76.0221 97.7148 84.3555C87.819 92.6237 74.2122 96.7578 56.8945 96.7578H35.0195ZM35.0195 70.293H57.4805C64.1211 70.293 69.1667 68.6328 72.6172 65.3125C76.1328 61.9922 77.8906 57.3047 77.8906 51.25C77.8906 44.6094 76.1003 39.3034 72.5195 35.332C68.9388 31.3607 64.056 29.3424 57.8711 29.2773H35.0195V70.293Z" fill="black"/>
<path d="M204.355 107.207C204.355 102.194 202.565 98.2878 198.984 95.4883C195.469 92.6888 189.251 89.7917 180.332 86.7969C171.413 83.8021 164.121 80.9049 158.457 78.1055C140.033 69.056 130.82 56.6211 130.82 40.8008C130.82 32.9232 133.099 25.9896 137.656 20C142.279 13.9453 148.789 9.25781 157.188 5.9375C165.586 2.55208 175.026 0.859375 185.508 0.859375C195.729 0.859375 204.876 2.68229 212.949 6.32812C221.087 9.97396 227.402 15.1823 231.895 21.9531C236.387 28.6589 238.633 36.3411 238.633 45H204.453C204.453 39.2057 202.663 34.7135 199.082 31.5234C195.566 28.3333 190.781 26.7383 184.727 26.7383C178.607 26.7383 173.757 28.1055 170.176 30.8398C166.66 33.5091 164.902 36.9271 164.902 41.0938C164.902 44.7396 166.855 48.0599 170.762 51.0547C174.668 53.9844 181.536 57.0443 191.367 60.2344C201.198 63.3594 209.271 66.7448 215.586 70.3906C230.951 79.2448 238.633 91.4518 238.633 107.012C238.633 119.447 233.945 129.212 224.57 136.309C215.195 143.405 202.337 146.953 185.996 146.953C174.473 146.953 164.023 144.902 154.648 140.801C145.339 136.634 138.307 130.97 133.555 123.809C128.867 116.582 126.523 108.281 126.523 98.9062H160.898C160.898 106.523 162.852 112.155 166.758 115.801C170.729 119.382 177.142 121.172 185.996 121.172C191.66 121.172 196.12 119.967 199.375 117.559C202.695 115.085 204.355 111.634 204.355 107.207Z" fill="black"/>
</svg>
